M48
;Layer_Color=9474304
;FILE_FORMAT=2:3
INCH,LZ
T6F00S00C0.080
%
G90
G05
T06
G00X0496Y017
M15
G01X0496Y017
G01X04964Y017
G01X0498Y01701
G01X04988Y01703
G01X05004Y01708
G01X05011Y01711
G01X05026Y01719
G01X05033Y01723
G01X05046Y01734
G01X05051Y0174
G01X05051Y01739
G01X0506Y0175
G01X05064Y01756
G01X0507Y01768
G01X05073Y01775
G01X05077Y01788
G01X05079Y01796
G01X0508Y01813
G01X0508Y0394
G01X0508Y0394
G01X0508Y03944
G01X05079Y0396
G01X05077Y03968
G01X05072Y03984
G01X05069Y03991
G01X05061Y04006
G01X05057Y04013
G01X05046Y04026
G01X05041Y0403
G01X05041Y04031
G01X05022Y04047
G01X05Y04059
G01X04977Y04068
G01X04952Y04074
G01X0493Y04075
G01X03003Y04075
G01X03003Y04075
G01X02999Y04075
G01X02986Y04074
G01X02978Y04072
G01X02965Y04068
G01X02958Y04065
G01X02946Y04059
G01X0294Y04055
G01X02929Y04046
G01X0293Y04046
G01X02924Y04041
G01X02908Y04022
G01X02896Y04
G01X02887Y03977
G01X02881Y03952
G01X0288Y0393
G01X0288Y01803
G01X0288Y01803
G01X0288Y01799
G01X02881Y01786
G01X02883Y01778
G01X02887Y01765
G01X0289Y01758
G01X02896Y01746
G01X029Y0174
G01X02909Y01729
G01X02909Y0173
G01X02915Y01723
G01X02926Y01715
G01X02935Y0171
G01X02948Y01704
G01X02958Y01702
G01X02976Y017
G01X0496Y017
M16
M17
M30
