M48
;Layer_Color=9474304
;FILE_FORMAT=2:3
INCH,LZ
;TYPE=PLATED
T1F00S00C0.030
T2F00S00C0.031
T3F00S00C0.033
T4F00S00C0.035
T5F00S00C0.100
;TYPE=NON_PLATED
%
T01
X04975Y0206
Y0269
X04585
X04378Y02715
Y02815
Y02915
Y03015
Y03115
Y02615
Y02515
Y02415
Y02315
Y02215
Y02115
Y02015
Y01915
X04585Y0206
X03472Y02015
Y02115
Y02215
Y02315
Y02415
Y02515
Y02615
Y02715
Y02815
Y02915
Y03015
Y03115
Y01915
Y03215
Y03315
Y03415
Y03515
Y03615
Y03715
X04378
Y03615
Y03515
Y03415
Y03315
Y03215
T02
X03186Y0391
X03265
T03
X0319Y0291
X031Y03015
Y03315
Y0351
Y0381
X0319Y03715
Y03415
Y0321
T04
X04745Y01925
X04845
X0474Y02825
X0464
X0466Y0297
Y0307
X04645Y01925
X03305Y02285
Y02385
Y02485
Y02585
Y02685
Y02815
Y02915
Y03015
Y03115
Y03215
Y03315
Y03415
Y03515
X0466Y0347
Y0357
Y0367
Y0337
Y0327
Y0317
X0483Y03445
Y03545
Y03645
Y03745
T05
X04955Y0181
X03
Y0394
X04955
M30
