G04*
G04 #@! TF.GenerationSoftware,Altium Limited,Altium Designer,22.4.2 (48)*
G04*
G04 Layer_Physical_Order=2*
G04 Layer_Color=16711680*
%FSLAX23Y23*%
%MOIN*%
G70*
G04*
G04 #@! TF.SameCoordinates,591487FC-1082-4C1E-878C-0D24C6327220*
G04*
G04*
G04 #@! TF.FilePolarity,Positive*
G04*
G01*
G75*
%ADD10C,0.030*%
%ADD11C,0.050*%
%ADD12C,0.055*%
%ADD13R,0.060X0.060*%
%ADD14C,0.060*%
%ADD15R,0.051X0.051*%
%ADD16C,0.051*%
%ADD17C,0.059*%
%ADD18R,0.059X0.059*%
%ADD19R,0.060X0.060*%
%ADD20R,0.059X0.059*%
%ADD21C,0.089*%
G36*
X4922Y3990D02*
X4917Y3987D01*
X4908Y3978D01*
X4902Y3968D01*
X4897Y3958D01*
X4895Y3946D01*
Y3934D01*
X4897Y3922D01*
X4902Y3912D01*
X4908Y3902D01*
X4917Y3893D01*
X4927Y3887D01*
X4937Y3882D01*
X4949Y3880D01*
X4961D01*
X4973Y3882D01*
X4983Y3887D01*
X4993Y3893D01*
X4996Y3896D01*
X5000Y3894D01*
Y3669D01*
X4996Y3667D01*
X4974Y3689D01*
X4964Y3697D01*
X4953Y3703D01*
X4941Y3707D01*
X4928Y3708D01*
X4870D01*
Y3740D01*
X4830D01*
X4790D01*
Y3710D01*
X4731D01*
X4729Y3711D01*
X4719Y3719D01*
X4708Y3725D01*
X4696Y3729D01*
X4683Y3730D01*
X4673Y3733D01*
X4660Y3735D01*
X4647Y3733D01*
X4635Y3730D01*
X4624Y3724D01*
X4614Y3716D01*
X4606Y3706D01*
X4600Y3695D01*
X4597Y3683D01*
X4595Y3670D01*
X4597Y3657D01*
X4600Y3645D01*
X4606Y3634D01*
X4614Y3624D01*
X4619Y3620D01*
X4629Y3612D01*
X4636Y3608D01*
X4636Y3602D01*
X4636Y3602D01*
X4628Y3594D01*
X4623Y3585D01*
X4620Y3575D01*
Y3575D01*
X4660D01*
X4700D01*
Y3575D01*
X4699Y3577D01*
X4702Y3580D01*
X4704Y3580D01*
X4756D01*
X4758Y3575D01*
X4707Y3525D01*
X4593D01*
X4564Y3554D01*
X4552Y3562D01*
X4539Y3568D01*
X4525Y3570D01*
X4378D01*
X4363Y3568D01*
X4350Y3562D01*
X4339Y3554D01*
X4330Y3542D01*
X4325Y3529D01*
X4323Y3515D01*
X4325Y3501D01*
X4330Y3488D01*
X4339Y3476D01*
X4350Y3468D01*
X4363Y3462D01*
X4378Y3460D01*
X4502D01*
X4531Y3431D01*
X4543Y3423D01*
X4556Y3417D01*
X4570Y3415D01*
X4579D01*
X4581Y3410D01*
X4577Y3408D01*
X4439Y3270D01*
X4378D01*
X4363Y3268D01*
X4350Y3262D01*
X4339Y3254D01*
X4330Y3242D01*
X4325Y3229D01*
X4323Y3215D01*
X4325Y3201D01*
X4330Y3188D01*
X4339Y3176D01*
X4350Y3168D01*
X4363Y3162D01*
X4378Y3160D01*
X4462D01*
X4476Y3162D01*
X4489Y3168D01*
X4501Y3176D01*
X4639Y3314D01*
X4652D01*
X4653Y3309D01*
X4645Y3307D01*
X4636Y3302D01*
X4628Y3294D01*
X4623Y3285D01*
X4620Y3275D01*
Y3265D01*
X4623Y3255D01*
X4628Y3246D01*
X4636Y3238D01*
X4645Y3233D01*
X4655Y3230D01*
X4665D01*
X4675Y3233D01*
X4684Y3238D01*
X4692Y3246D01*
X4697Y3255D01*
X4700Y3265D01*
Y3275D01*
X4697Y3285D01*
X4692Y3294D01*
X4684Y3302D01*
X4675Y3307D01*
X4665Y3310D01*
X4664D01*
X4663Y3315D01*
X4668Y3315D01*
X4755D01*
X4769Y3317D01*
X4782Y3323D01*
X4794Y3331D01*
X4869Y3406D01*
X4877Y3418D01*
X4883Y3431D01*
X4885Y3445D01*
X4883Y3459D01*
X4877Y3472D01*
X4869Y3484D01*
X4859Y3491D01*
X4858Y3497D01*
X4863Y3501D01*
X4869Y3506D01*
X4877Y3518D01*
X4883Y3531D01*
X4885Y3545D01*
X4883Y3559D01*
X4877Y3572D01*
X4876Y3574D01*
X4878Y3579D01*
X4901D01*
X4905Y3575D01*
Y2877D01*
X4699Y2671D01*
X4691Y2661D01*
X4685Y2650D01*
X4682Y2638D01*
X4680Y2625D01*
Y1953D01*
X4676Y1950D01*
X4669Y1957D01*
X4660Y1962D01*
X4650Y1965D01*
X4640D01*
X4630Y1962D01*
X4621Y1957D01*
X4613Y1949D01*
X4608Y1940D01*
X4605Y1930D01*
Y1920D01*
X4608Y1910D01*
X4613Y1901D01*
X4620Y1894D01*
X4617Y1890D01*
X4415D01*
X4412Y1895D01*
X4415Y1900D01*
X4418Y1910D01*
Y1920D01*
X4415Y1930D01*
X4410Y1940D01*
X4402Y1947D01*
X4393Y1952D01*
X4383Y1955D01*
X4372D01*
X4362Y1952D01*
X4353Y1947D01*
X4346Y1940D01*
X4340Y1930D01*
X4338Y1920D01*
Y1910D01*
X4340Y1900D01*
X4343Y1895D01*
X4340Y1890D01*
X3595D01*
X3516Y1969D01*
X3506Y1977D01*
X3500Y1980D01*
X3500Y1986D01*
X3504Y1990D01*
X3509Y2000D01*
X3512Y2010D01*
Y2020D01*
X3509Y2030D01*
X3504Y2040D01*
X3497Y2047D01*
X3488Y2052D01*
X3477Y2055D01*
X3467D01*
X3457Y2052D01*
X3448Y2047D01*
X3440Y2040D01*
X3435Y2030D01*
X3432Y2020D01*
Y2010D01*
X3435Y2000D01*
X3439Y1993D01*
X3436Y1988D01*
X3269D01*
X3235Y2022D01*
Y2320D01*
X3265D01*
Y2290D01*
X3305D01*
X3345D01*
Y2321D01*
X3350Y2323D01*
X3390Y2282D01*
X3402Y2273D01*
X3415Y2268D01*
X3429Y2266D01*
X3449D01*
X3458Y2262D01*
X3472Y2260D01*
X3486Y2262D01*
X3500Y2268D01*
X3511Y2276D01*
X3520Y2288D01*
X3525Y2301D01*
X3527Y2315D01*
X3525Y2329D01*
X3520Y2342D01*
X3511Y2354D01*
X3505Y2360D01*
X3494Y2368D01*
X3485Y2372D01*
X3485Y2377D01*
X3488Y2378D01*
X3497Y2383D01*
X3504Y2390D01*
X3509Y2400D01*
X3512Y2410D01*
Y2410D01*
X3472D01*
Y2415D01*
X3467D01*
Y2455D01*
X3467D01*
X3457Y2452D01*
X3448Y2447D01*
X3443Y2443D01*
X3438Y2445D01*
X3437Y2450D01*
X3432Y2463D01*
X3423Y2474D01*
X3379Y2518D01*
X3370Y2525D01*
X3370Y2526D01*
X3372Y2530D01*
X3384Y2532D01*
X3397Y2538D01*
X3409Y2546D01*
X3423Y2560D01*
X3462D01*
X3476Y2562D01*
X3489Y2568D01*
X3501Y2576D01*
X3509Y2584D01*
X3517Y2596D01*
X3523Y2609D01*
X3525Y2623D01*
X3523Y2637D01*
X3517Y2650D01*
X3509Y2662D01*
X3504Y2666D01*
Y2671D01*
X3511Y2676D01*
X3520Y2688D01*
X3525Y2701D01*
X3527Y2715D01*
X3525Y2729D01*
X3520Y2742D01*
X3511Y2754D01*
X3500Y2762D01*
X3486Y2768D01*
X3472Y2770D01*
X3390D01*
X3376Y2768D01*
X3363Y2762D01*
X3351Y2754D01*
X3337Y2740D01*
X3313D01*
X3311Y2745D01*
X3311Y2746D01*
X3318Y2747D01*
X3330Y2750D01*
X3341Y2756D01*
X3351Y2764D01*
X3359Y2774D01*
X3365Y2785D01*
X3368Y2797D01*
X3370Y2810D01*
Y3110D01*
X3368Y3123D01*
X3365Y3135D01*
X3359Y3146D01*
X3351Y3155D01*
X3352Y3160D01*
X3352Y3160D01*
X3472D01*
X3486Y3162D01*
X3500Y3168D01*
X3511Y3176D01*
X3520Y3188D01*
X3525Y3201D01*
X3527Y3215D01*
X3525Y3229D01*
X3520Y3242D01*
X3511Y3254D01*
X3500Y3262D01*
X3500Y3265D01*
Y3265D01*
X3500Y3268D01*
X3511Y3276D01*
X3520Y3288D01*
X3525Y3301D01*
X3527Y3315D01*
X3525Y3329D01*
X3520Y3342D01*
X3511Y3354D01*
X3500Y3362D01*
X3500Y3367D01*
X3501Y3368D01*
X3512Y3376D01*
X3521Y3388D01*
X3526Y3401D01*
X3528Y3415D01*
X3526Y3429D01*
X3521Y3442D01*
X3512Y3454D01*
X3501Y3462D01*
X3500Y3463D01*
X3500Y3468D01*
X3511Y3476D01*
X3520Y3488D01*
X3525Y3501D01*
X3527Y3515D01*
X3525Y3529D01*
X3524Y3533D01*
X3523Y3537D01*
X3517Y3550D01*
X3509Y3562D01*
X3504Y3566D01*
X3504Y3571D01*
X3511Y3576D01*
X3520Y3588D01*
X3525Y3601D01*
X3527Y3615D01*
X3525Y3629D01*
X3520Y3642D01*
X3511Y3654D01*
X3500Y3662D01*
X3486Y3668D01*
X3472Y3670D01*
X3442D01*
X3442Y3670D01*
X3445Y3675D01*
X3512D01*
Y3755D01*
X3432D01*
Y3684D01*
X3427Y3682D01*
X3425Y3684D01*
Y3860D01*
X3423Y3874D01*
X3417Y3887D01*
X3409Y3899D01*
X3359Y3949D01*
X3347Y3957D01*
X3334Y3963D01*
X3320Y3965D01*
X3265D01*
X3251Y3963D01*
X3238Y3957D01*
X3226Y3949D01*
X3218Y3937D01*
X3217Y3937D01*
X3211Y3935D01*
X3208Y3938D01*
X3200Y3943D01*
X3191Y3946D01*
Y3910D01*
Y3874D01*
X3200Y3877D01*
X3208Y3882D01*
X3211Y3885D01*
X3217Y3883D01*
X3218Y3883D01*
X3226Y3871D01*
X3238Y3863D01*
X3251Y3857D01*
X3265Y3855D01*
X3297D01*
X3315Y3837D01*
Y3660D01*
X3317Y3646D01*
X3323Y3633D01*
X3331Y3621D01*
X3376Y3576D01*
X3378Y3575D01*
X3377Y3570D01*
X3123D01*
X3121Y3570D01*
X3105D01*
X3091Y3568D01*
X3077Y3562D01*
X3066Y3554D01*
X3061Y3549D01*
X3053Y3537D01*
X3047Y3524D01*
X3045Y3510D01*
X3047Y3496D01*
X3053Y3483D01*
X3061Y3471D01*
X3073Y3463D01*
X3086Y3457D01*
X3100Y3455D01*
X3114Y3457D01*
X3121Y3460D01*
X3123D01*
X3124Y3460D01*
X3157D01*
X3158Y3455D01*
X3156Y3454D01*
X3151Y3449D01*
X3143Y3437D01*
X3137Y3424D01*
X3135Y3410D01*
X3137Y3396D01*
X3143Y3383D01*
X3148Y3375D01*
X3146Y3370D01*
X3123D01*
X3121Y3370D01*
X3105D01*
X3091Y3368D01*
X3077Y3362D01*
X3066Y3354D01*
X3061Y3349D01*
X3053Y3337D01*
X3047Y3324D01*
X3045Y3310D01*
X3047Y3296D01*
X3053Y3283D01*
X3061Y3271D01*
X3073Y3263D01*
X3086Y3257D01*
X3100Y3255D01*
X3114Y3257D01*
X3121Y3260D01*
X3123D01*
X3124Y3260D01*
X3157D01*
X3158Y3255D01*
X3156Y3254D01*
X3151Y3249D01*
X3143Y3237D01*
X3137Y3224D01*
X3135Y3210D01*
X3137Y3196D01*
X3143Y3183D01*
X3151Y3171D01*
X3163Y3163D01*
X3176Y3157D01*
X3190Y3155D01*
X3204Y3157D01*
X3211Y3160D01*
X3218D01*
X3219Y3160D01*
X3258D01*
X3258Y3160D01*
X3259Y3155D01*
X3251Y3146D01*
X3245Y3135D01*
X3242Y3123D01*
X3240Y3110D01*
Y2861D01*
X3234Y2856D01*
X3124Y2746D01*
X3116Y2736D01*
X3110Y2725D01*
X3107Y2713D01*
X3105Y2700D01*
Y2390D01*
Y1995D01*
X3107Y1982D01*
X3110Y1970D01*
X3116Y1959D01*
X3124Y1949D01*
X3196Y1877D01*
X3206Y1869D01*
X3217Y1863D01*
X3229Y1860D01*
X3242Y1858D01*
X3443D01*
X3517Y1784D01*
X3515Y1780D01*
X3058D01*
X3054Y1785D01*
X3058Y1792D01*
X3060Y1804D01*
Y1816D01*
X3058Y1828D01*
X3053Y1838D01*
X3047Y1848D01*
X3038Y1857D01*
X3028Y1863D01*
X3018Y1868D01*
X3006Y1870D01*
X2994D01*
X2982Y1868D01*
X2972Y1863D01*
X2965Y1859D01*
X2960Y1861D01*
Y3889D01*
X2965Y3891D01*
X2972Y3887D01*
X2982Y3882D01*
X2994Y3880D01*
X3006D01*
X3018Y3882D01*
X3028Y3887D01*
X3038Y3893D01*
X3047Y3902D01*
X3053Y3912D01*
X3058Y3922D01*
X3060Y3934D01*
Y3946D01*
X3058Y3958D01*
X3053Y3968D01*
X3047Y3978D01*
X3038Y3987D01*
X3033Y3990D01*
X3034Y3995D01*
X4921D01*
X4922Y3990D01*
D02*
G37*
G36*
X3251Y2682D02*
X3252Y2671D01*
X3258Y2658D01*
X3266Y2646D01*
X3277Y2638D01*
X3278Y2635D01*
Y2635D01*
X3277Y2632D01*
X3266Y2624D01*
X3258Y2612D01*
X3252Y2599D01*
X3250Y2585D01*
X3252Y2571D01*
X3258Y2558D01*
X3266Y2546D01*
X3277Y2538D01*
X3278Y2535D01*
Y2535D01*
X3277Y2532D01*
X3266Y2524D01*
X3258Y2512D01*
X3252Y2499D01*
X3250Y2485D01*
X3252Y2471D01*
X3258Y2458D01*
X3260Y2454D01*
X3258Y2450D01*
X3235D01*
Y2673D01*
X3245Y2684D01*
X3251Y2682D01*
D02*
G37*
G36*
X4935Y2717D02*
Y2695D01*
X4975D01*
Y2690D01*
X4980D01*
Y2650D01*
X5000D01*
Y2113D01*
X4996Y2110D01*
X4989Y2113D01*
X4975Y2115D01*
X4961Y2113D01*
X4948Y2107D01*
X4938Y2100D01*
X4935D01*
Y2098D01*
X4933Y2095D01*
X4924Y2084D01*
X4919Y2071D01*
X4917Y2057D01*
Y2014D01*
X4882Y1980D01*
X4845D01*
X4831Y1978D01*
X4818Y1972D01*
X4814Y1970D01*
X4810Y1972D01*
Y2598D01*
X4930Y2719D01*
X4935Y2717D01*
D02*
G37*
G36*
X5000Y1936D02*
Y1856D01*
X4996Y1854D01*
X4993Y1857D01*
X4983Y1863D01*
X4973Y1868D01*
X4961Y1870D01*
X4949D01*
X4937Y1868D01*
X4927Y1863D01*
X4917Y1857D01*
X4908Y1848D01*
X4902Y1838D01*
X4897Y1828D01*
X4895Y1816D01*
Y1804D01*
X4897Y1792D01*
X4901Y1785D01*
X4897Y1780D01*
X4696D01*
X4694Y1784D01*
X4781Y1872D01*
X4791Y1879D01*
X4797Y1887D01*
X4803Y1888D01*
X4805Y1885D01*
Y1885D01*
X4810Y1884D01*
X4818Y1878D01*
X4831Y1872D01*
X4845Y1870D01*
X4905D01*
X4919Y1872D01*
X4932Y1878D01*
X4944Y1886D01*
X4996Y1938D01*
X5000Y1936D01*
D02*
G37*
%LPC*%
G36*
X3181Y3946D02*
X3173Y3943D01*
X3164Y3938D01*
X3158Y3932D01*
X3153Y3924D01*
X3151Y3915D01*
X3181D01*
Y3946D01*
D02*
G37*
G36*
Y3905D02*
X3151D01*
X3153Y3896D01*
X3158Y3888D01*
X3164Y3882D01*
X3173Y3877D01*
X3181Y3874D01*
Y3905D01*
D02*
G37*
G36*
X3105Y3848D02*
Y3815D01*
X3138D01*
X3135Y3824D01*
X3130Y3833D01*
X3123Y3840D01*
X3114Y3845D01*
X3105Y3848D01*
D02*
G37*
G36*
X3095D02*
X3086Y3845D01*
X3077Y3840D01*
X3070Y3833D01*
X3065Y3824D01*
X3062Y3815D01*
X3095D01*
Y3848D01*
D02*
G37*
G36*
X3138Y3805D02*
X3105D01*
Y3772D01*
X3114Y3775D01*
X3123Y3780D01*
X3130Y3787D01*
X3135Y3796D01*
X3138Y3805D01*
D02*
G37*
G36*
X3095D02*
X3062D01*
X3065Y3796D01*
X3070Y3787D01*
X3077Y3780D01*
X3086Y3775D01*
X3095Y3772D01*
Y3805D01*
D02*
G37*
G36*
X4870Y3785D02*
X4835D01*
Y3750D01*
X4870D01*
Y3785D01*
D02*
G37*
G36*
X4825D02*
X4790D01*
Y3750D01*
X4825D01*
Y3785D01*
D02*
G37*
G36*
X3195Y3753D02*
Y3720D01*
X3228D01*
X3225Y3729D01*
X3220Y3738D01*
X3213Y3745D01*
X3204Y3750D01*
X3195Y3753D01*
D02*
G37*
G36*
X4383Y3755D02*
X4383D01*
Y3720D01*
X4418D01*
Y3720D01*
X4415Y3730D01*
X4410Y3740D01*
X4402Y3747D01*
X4393Y3752D01*
X4383Y3755D01*
D02*
G37*
G36*
X4373D02*
X4372D01*
X4362Y3752D01*
X4353Y3747D01*
X4346Y3740D01*
X4340Y3730D01*
X4338Y3720D01*
Y3720D01*
X4373D01*
Y3755D01*
D02*
G37*
G36*
X3185Y3753D02*
X3176Y3750D01*
X3167Y3745D01*
X3160Y3738D01*
X3155Y3729D01*
X3152Y3720D01*
X3185D01*
Y3753D01*
D02*
G37*
G36*
X3228Y3710D02*
X3195D01*
Y3677D01*
X3204Y3680D01*
X3213Y3685D01*
X3220Y3692D01*
X3225Y3701D01*
X3228Y3710D01*
D02*
G37*
G36*
X3185D02*
X3152D01*
X3155Y3701D01*
X3160Y3692D01*
X3167Y3685D01*
X3176Y3680D01*
X3185Y3677D01*
Y3710D01*
D02*
G37*
G36*
X4418D02*
X4383D01*
Y3675D01*
X4383D01*
X4393Y3678D01*
X4402Y3683D01*
X4410Y3690D01*
X4415Y3700D01*
X4418Y3710D01*
Y3710D01*
D02*
G37*
G36*
X4373D02*
X4338D01*
Y3710D01*
X4340Y3700D01*
X4346Y3690D01*
X4353Y3683D01*
X4362Y3678D01*
X4372Y3675D01*
X4373D01*
Y3710D01*
D02*
G37*
G36*
X4383Y3655D02*
X4372D01*
X4362Y3652D01*
X4353Y3647D01*
X4346Y3640D01*
X4340Y3630D01*
X4338Y3620D01*
Y3610D01*
X4340Y3600D01*
X4346Y3590D01*
X4353Y3583D01*
X4362Y3578D01*
X4372Y3575D01*
X4383D01*
X4393Y3578D01*
X4402Y3583D01*
X4410Y3590D01*
X4415Y3600D01*
X4418Y3610D01*
Y3620D01*
X4415Y3630D01*
X4410Y3640D01*
X4402Y3647D01*
X4393Y3652D01*
X4383Y3655D01*
D02*
G37*
G36*
X4700Y3565D02*
X4665D01*
Y3530D01*
X4665D01*
X4675Y3533D01*
X4684Y3538D01*
X4692Y3546D01*
X4697Y3555D01*
X4700Y3565D01*
Y3565D01*
D02*
G37*
G36*
X4655D02*
X4620D01*
Y3565D01*
X4623Y3555D01*
X4628Y3546D01*
X4636Y3538D01*
X4645Y3533D01*
X4655Y3530D01*
X4655D01*
Y3565D01*
D02*
G37*
G36*
X4383Y3455D02*
X4372D01*
X4362Y3452D01*
X4353Y3447D01*
X4346Y3440D01*
X4340Y3430D01*
X4338Y3420D01*
Y3410D01*
X4340Y3400D01*
X4346Y3390D01*
X4353Y3383D01*
X4362Y3378D01*
X4372Y3375D01*
X4383D01*
X4393Y3378D01*
X4402Y3383D01*
X4410Y3390D01*
X4415Y3400D01*
X4418Y3410D01*
Y3420D01*
X4415Y3430D01*
X4410Y3440D01*
X4402Y3447D01*
X4393Y3452D01*
X4383Y3455D01*
D02*
G37*
G36*
Y3355D02*
X4372D01*
X4362Y3352D01*
X4353Y3347D01*
X4346Y3340D01*
X4340Y3330D01*
X4338Y3320D01*
Y3310D01*
X4340Y3300D01*
X4346Y3290D01*
X4353Y3283D01*
X4362Y3278D01*
X4372Y3275D01*
X4383D01*
X4393Y3278D01*
X4402Y3283D01*
X4410Y3290D01*
X4415Y3300D01*
X4418Y3310D01*
Y3320D01*
X4415Y3330D01*
X4410Y3340D01*
X4402Y3347D01*
X4393Y3352D01*
X4383Y3355D01*
D02*
G37*
G36*
X4665Y3210D02*
X4655D01*
X4645Y3207D01*
X4636Y3202D01*
X4628Y3194D01*
X4623Y3185D01*
X4620Y3175D01*
Y3165D01*
X4623Y3155D01*
X4628Y3146D01*
X4636Y3138D01*
X4645Y3133D01*
X4655Y3130D01*
X4665D01*
X4675Y3133D01*
X4684Y3138D01*
X4692Y3146D01*
X4697Y3155D01*
X4700Y3165D01*
Y3175D01*
X4697Y3185D01*
X4692Y3194D01*
X4684Y3202D01*
X4675Y3207D01*
X4665Y3210D01*
D02*
G37*
G36*
X4383Y3155D02*
X4383D01*
Y3120D01*
X4418D01*
Y3120D01*
X4415Y3130D01*
X4410Y3140D01*
X4402Y3147D01*
X4393Y3152D01*
X4383Y3155D01*
D02*
G37*
G36*
X4373D02*
X4372D01*
X4362Y3152D01*
X4353Y3147D01*
X4346Y3140D01*
X4340Y3130D01*
X4338Y3120D01*
Y3120D01*
X4373D01*
Y3155D01*
D02*
G37*
G36*
X4418Y3110D02*
X4383D01*
Y3075D01*
X4383D01*
X4393Y3078D01*
X4402Y3083D01*
X4410Y3090D01*
X4415Y3100D01*
X4418Y3110D01*
Y3110D01*
D02*
G37*
G36*
X4373D02*
X4338D01*
Y3110D01*
X4340Y3100D01*
X4346Y3090D01*
X4353Y3083D01*
X4362Y3078D01*
X4372Y3075D01*
X4373D01*
Y3110D01*
D02*
G37*
G36*
X4665Y3110D02*
X4655D01*
X4645Y3107D01*
X4636Y3102D01*
X4628Y3094D01*
X4623Y3085D01*
X4620Y3075D01*
Y3065D01*
X4623Y3055D01*
X4628Y3046D01*
X4636Y3038D01*
X4645Y3033D01*
X4655Y3030D01*
X4665D01*
X4675Y3033D01*
X4684Y3038D01*
X4692Y3046D01*
X4697Y3055D01*
X4700Y3065D01*
Y3075D01*
X4697Y3085D01*
X4692Y3094D01*
X4684Y3102D01*
X4675Y3107D01*
X4665Y3110D01*
D02*
G37*
G36*
X3105Y3053D02*
Y3020D01*
X3138D01*
X3135Y3029D01*
X3130Y3038D01*
X3123Y3045D01*
X3114Y3050D01*
X3105Y3053D01*
D02*
G37*
G36*
X3095D02*
X3086Y3050D01*
X3077Y3045D01*
X3070Y3038D01*
X3065Y3029D01*
X3062Y3020D01*
X3095D01*
Y3053D01*
D02*
G37*
G36*
X3138Y3010D02*
X3105D01*
Y2977D01*
X3114Y2980D01*
X3123Y2985D01*
X3130Y2992D01*
X3135Y3001D01*
X3138Y3010D01*
D02*
G37*
G36*
X3095D02*
X3062D01*
X3065Y3001D01*
X3070Y2992D01*
X3077Y2985D01*
X3086Y2980D01*
X3095Y2977D01*
Y3010D01*
D02*
G37*
G36*
X4383Y3055D02*
X4372D01*
X4362Y3052D01*
X4353Y3047D01*
X4346Y3040D01*
X4340Y3030D01*
X4338Y3020D01*
Y3010D01*
X4340Y3000D01*
X4346Y2990D01*
X4353Y2983D01*
X4362Y2978D01*
X4372Y2975D01*
X4383D01*
X4393Y2978D01*
X4402Y2983D01*
X4410Y2990D01*
X4415Y3000D01*
X4418Y3010D01*
Y3020D01*
X4415Y3030D01*
X4410Y3040D01*
X4402Y3047D01*
X4393Y3052D01*
X4383Y3055D01*
D02*
G37*
G36*
X4665Y3010D02*
X4655D01*
X4645Y3007D01*
X4636Y3002D01*
X4628Y2994D01*
X4623Y2985D01*
X4620Y2975D01*
Y2965D01*
X4623Y2955D01*
X4628Y2946D01*
X4636Y2938D01*
X4645Y2933D01*
X4655Y2930D01*
X4665D01*
X4675Y2933D01*
X4684Y2938D01*
X4692Y2946D01*
X4697Y2955D01*
X4700Y2965D01*
Y2975D01*
X4697Y2985D01*
X4692Y2994D01*
X4684Y3002D01*
X4675Y3007D01*
X4665Y3010D01*
D02*
G37*
G36*
X3195Y2948D02*
Y2915D01*
X3228D01*
X3225Y2924D01*
X3220Y2933D01*
X3213Y2940D01*
X3204Y2945D01*
X3195Y2948D01*
D02*
G37*
G36*
X3185D02*
X3176Y2945D01*
X3167Y2940D01*
X3160Y2933D01*
X3155Y2924D01*
X3152Y2915D01*
X3185D01*
Y2948D01*
D02*
G37*
G36*
X3228Y2905D02*
X3195D01*
Y2872D01*
X3204Y2875D01*
X3213Y2880D01*
X3220Y2887D01*
X3225Y2896D01*
X3228Y2905D01*
D02*
G37*
G36*
X3185D02*
X3152D01*
X3155Y2896D01*
X3160Y2887D01*
X3167Y2880D01*
X3176Y2875D01*
X3185Y2872D01*
Y2905D01*
D02*
G37*
G36*
X3477Y3155D02*
X3467D01*
X3457Y3152D01*
X3448Y3147D01*
X3440Y3140D01*
X3435Y3130D01*
X3432Y3120D01*
Y3110D01*
X3435Y3100D01*
X3440Y3090D01*
X3448Y3083D01*
X3450Y3081D01*
X3449Y3076D01*
X3447Y3076D01*
X3434Y3070D01*
X3423Y3062D01*
X3414Y3050D01*
X3409Y3037D01*
X3407Y3023D01*
X3409Y3009D01*
X3414Y2996D01*
X3423Y2984D01*
X3434Y2975D01*
X3439Y2974D01*
X3439Y2968D01*
X3431Y2962D01*
X3423Y2950D01*
X3417Y2937D01*
X3415Y2923D01*
X3417Y2909D01*
X3423Y2896D01*
X3431Y2884D01*
X3443Y2875D01*
X3456Y2870D01*
X3470Y2868D01*
X3484Y2870D01*
X3497Y2875D01*
X3509Y2884D01*
X3517Y2896D01*
X3523Y2909D01*
X3525Y2923D01*
X3523Y2937D01*
X3517Y2950D01*
X3509Y2962D01*
X3498Y2970D01*
X3497Y2973D01*
Y2973D01*
X3498Y2976D01*
X3509Y2984D01*
X3517Y2996D01*
X3523Y3009D01*
X3525Y3023D01*
X3523Y3037D01*
X3517Y3050D01*
X3509Y3062D01*
X3497Y3070D01*
X3490Y3073D01*
X3490Y3079D01*
X3497Y3083D01*
X3504Y3090D01*
X3509Y3100D01*
X3512Y3110D01*
Y3120D01*
X3509Y3130D01*
X3504Y3140D01*
X3497Y3147D01*
X3488Y3152D01*
X3477Y3155D01*
D02*
G37*
G36*
X4745Y2865D02*
X4745D01*
Y2830D01*
X4780D01*
Y2830D01*
X4777Y2840D01*
X4772Y2849D01*
X4764Y2857D01*
X4755Y2862D01*
X4745Y2865D01*
D02*
G37*
G36*
X4735D02*
X4735D01*
X4725Y2862D01*
X4716Y2857D01*
X4708Y2849D01*
X4703Y2840D01*
X4700Y2830D01*
Y2830D01*
X4735D01*
Y2865D01*
D02*
G37*
G36*
X4780Y2820D02*
X4745D01*
Y2785D01*
X4745D01*
X4755Y2788D01*
X4764Y2793D01*
X4772Y2801D01*
X4777Y2810D01*
X4780Y2820D01*
Y2820D01*
D02*
G37*
G36*
X4735D02*
X4700D01*
Y2820D01*
X4703Y2810D01*
X4708Y2801D01*
X4716Y2793D01*
X4725Y2788D01*
X4735Y2785D01*
X4735D01*
Y2820D01*
D02*
G37*
G36*
X3477Y2855D02*
X3467D01*
X3457Y2852D01*
X3448Y2847D01*
X3440Y2840D01*
X3435Y2830D01*
X3432Y2820D01*
Y2810D01*
X3435Y2800D01*
X3440Y2790D01*
X3448Y2783D01*
X3457Y2778D01*
X3467Y2775D01*
X3477D01*
X3488Y2778D01*
X3497Y2783D01*
X3504Y2790D01*
X3509Y2800D01*
X3512Y2810D01*
Y2820D01*
X3509Y2830D01*
X3504Y2840D01*
X3497Y2847D01*
X3488Y2852D01*
X3477Y2855D01*
D02*
G37*
G36*
X4383Y2955D02*
X4372D01*
X4362Y2952D01*
X4353Y2947D01*
X4346Y2940D01*
X4340Y2930D01*
X4338Y2920D01*
Y2910D01*
X4340Y2900D01*
X4346Y2890D01*
X4353Y2883D01*
X4362Y2878D01*
X4365Y2877D01*
X4365Y2872D01*
X4355Y2867D01*
X4344Y2859D01*
X4339Y2854D01*
X4330Y2842D01*
X4325Y2829D01*
X4323Y2815D01*
X4325Y2801D01*
X4330Y2788D01*
X4339Y2776D01*
X4350Y2768D01*
X4363Y2762D01*
X4378Y2760D01*
X4392Y2762D01*
X4399Y2765D01*
X4635D01*
X4649Y2767D01*
X4662Y2773D01*
X4674Y2781D01*
X4678Y2785D01*
X4680D01*
Y2787D01*
X4687Y2798D01*
X4693Y2811D01*
X4695Y2825D01*
X4695Y2828D01*
X4695Y2830D01*
X4693Y2844D01*
X4687Y2857D01*
X4679Y2869D01*
X4667Y2877D01*
X4654Y2883D01*
X4640Y2885D01*
X4626Y2883D01*
X4613Y2877D01*
X4609Y2875D01*
X4398D01*
X4397Y2880D01*
X4402Y2883D01*
X4410Y2890D01*
X4415Y2900D01*
X4418Y2910D01*
Y2920D01*
X4415Y2930D01*
X4410Y2940D01*
X4402Y2947D01*
X4393Y2952D01*
X4383Y2955D01*
D02*
G37*
G36*
Y2755D02*
X4372D01*
X4362Y2752D01*
X4353Y2747D01*
X4346Y2740D01*
X4340Y2730D01*
X4338Y2720D01*
Y2710D01*
X4340Y2700D01*
X4346Y2690D01*
X4353Y2683D01*
X4362Y2678D01*
X4372Y2675D01*
X4383D01*
X4393Y2678D01*
X4402Y2683D01*
X4410Y2690D01*
X4415Y2700D01*
X4418Y2710D01*
Y2720D01*
X4415Y2730D01*
X4410Y2740D01*
X4402Y2747D01*
X4393Y2752D01*
X4383Y2755D01*
D02*
G37*
G36*
X4625Y2730D02*
X4545D01*
Y2650D01*
X4625D01*
Y2730D01*
D02*
G37*
G36*
X4383Y2655D02*
X4372D01*
X4362Y2652D01*
X4353Y2647D01*
X4346Y2640D01*
X4340Y2630D01*
X4338Y2620D01*
Y2610D01*
X4340Y2600D01*
X4346Y2590D01*
X4353Y2583D01*
X4362Y2578D01*
X4372Y2575D01*
X4383D01*
X4393Y2578D01*
X4402Y2583D01*
X4410Y2590D01*
X4415Y2600D01*
X4418Y2610D01*
Y2620D01*
X4415Y2630D01*
X4410Y2640D01*
X4402Y2647D01*
X4393Y2652D01*
X4383Y2655D01*
D02*
G37*
G36*
Y2555D02*
X4372D01*
X4362Y2552D01*
X4353Y2547D01*
X4346Y2540D01*
X4340Y2530D01*
X4338Y2520D01*
Y2510D01*
X4340Y2500D01*
X4346Y2490D01*
X4353Y2483D01*
X4362Y2478D01*
X4372Y2475D01*
X4383D01*
X4393Y2478D01*
X4402Y2483D01*
X4410Y2490D01*
X4415Y2500D01*
X4418Y2510D01*
Y2520D01*
X4415Y2530D01*
X4410Y2540D01*
X4402Y2547D01*
X4393Y2552D01*
X4383Y2555D01*
D02*
G37*
G36*
X3477D02*
X3467D01*
X3457Y2552D01*
X3448Y2547D01*
X3440Y2540D01*
X3435Y2530D01*
X3432Y2520D01*
Y2510D01*
X3435Y2500D01*
X3440Y2490D01*
X3448Y2483D01*
X3457Y2478D01*
X3467Y2475D01*
X3477D01*
X3488Y2478D01*
X3497Y2483D01*
X3504Y2490D01*
X3509Y2500D01*
X3512Y2510D01*
Y2520D01*
X3509Y2530D01*
X3504Y2540D01*
X3497Y2547D01*
X3488Y2552D01*
X3477Y2555D01*
D02*
G37*
G36*
Y2455D02*
X3477D01*
Y2420D01*
X3512D01*
Y2420D01*
X3509Y2430D01*
X3504Y2440D01*
X3497Y2447D01*
X3488Y2452D01*
X3477Y2455D01*
D02*
G37*
G36*
X4383D02*
X4372D01*
X4362Y2452D01*
X4353Y2447D01*
X4346Y2440D01*
X4340Y2430D01*
X4338Y2420D01*
Y2410D01*
X4340Y2400D01*
X4346Y2390D01*
X4353Y2383D01*
X4362Y2378D01*
X4372Y2375D01*
X4383D01*
X4393Y2378D01*
X4402Y2383D01*
X4410Y2390D01*
X4415Y2400D01*
X4418Y2410D01*
Y2420D01*
X4415Y2430D01*
X4410Y2440D01*
X4402Y2447D01*
X4393Y2452D01*
X4383Y2455D01*
D02*
G37*
G36*
Y2355D02*
X4372D01*
X4362Y2352D01*
X4353Y2347D01*
X4346Y2340D01*
X4340Y2330D01*
X4338Y2320D01*
Y2310D01*
X4340Y2300D01*
X4346Y2290D01*
X4353Y2283D01*
X4362Y2278D01*
X4372Y2275D01*
X4383D01*
X4393Y2278D01*
X4402Y2283D01*
X4410Y2290D01*
X4415Y2300D01*
X4418Y2310D01*
Y2320D01*
X4415Y2330D01*
X4410Y2340D01*
X4402Y2347D01*
X4393Y2352D01*
X4383Y2355D01*
D02*
G37*
G36*
X3345Y2280D02*
X3310D01*
Y2245D01*
X3345D01*
Y2280D01*
D02*
G37*
G36*
X3300D02*
X3265D01*
Y2245D01*
X3300D01*
Y2280D01*
D02*
G37*
G36*
X4383Y2255D02*
X4372D01*
X4362Y2252D01*
X4353Y2247D01*
X4346Y2240D01*
X4340Y2230D01*
X4338Y2220D01*
Y2210D01*
X4340Y2200D01*
X4346Y2190D01*
X4353Y2183D01*
X4362Y2178D01*
X4372Y2175D01*
X4383D01*
X4393Y2178D01*
X4402Y2183D01*
X4410Y2190D01*
X4415Y2200D01*
X4418Y2210D01*
Y2220D01*
X4415Y2230D01*
X4410Y2240D01*
X4402Y2247D01*
X4393Y2252D01*
X4383Y2255D01*
D02*
G37*
G36*
X3477D02*
X3467D01*
X3457Y2252D01*
X3448Y2247D01*
X3440Y2240D01*
X3435Y2230D01*
X3432Y2220D01*
Y2210D01*
X3435Y2200D01*
X3440Y2190D01*
X3448Y2183D01*
X3457Y2178D01*
X3467Y2175D01*
X3477D01*
X3488Y2178D01*
X3497Y2183D01*
X3504Y2190D01*
X3509Y2200D01*
X3512Y2210D01*
Y2220D01*
X3509Y2230D01*
X3504Y2240D01*
X3497Y2247D01*
X3488Y2252D01*
X3477Y2255D01*
D02*
G37*
G36*
X4383Y2155D02*
X4372D01*
X4362Y2152D01*
X4353Y2147D01*
X4346Y2140D01*
X4340Y2130D01*
X4338Y2120D01*
Y2110D01*
X4340Y2100D01*
X4346Y2090D01*
X4353Y2083D01*
X4362Y2078D01*
X4372Y2075D01*
X4383D01*
X4393Y2078D01*
X4402Y2083D01*
X4410Y2090D01*
X4415Y2100D01*
X4418Y2110D01*
Y2120D01*
X4415Y2130D01*
X4410Y2140D01*
X4402Y2147D01*
X4393Y2152D01*
X4383Y2155D01*
D02*
G37*
G36*
X3477D02*
X3467D01*
X3457Y2152D01*
X3448Y2147D01*
X3440Y2140D01*
X3435Y2130D01*
X3432Y2120D01*
Y2110D01*
X3435Y2100D01*
X3440Y2090D01*
X3448Y2083D01*
X3457Y2078D01*
X3467Y2075D01*
X3477D01*
X3488Y2078D01*
X3497Y2083D01*
X3504Y2090D01*
X3509Y2100D01*
X3512Y2110D01*
Y2120D01*
X3509Y2130D01*
X3504Y2140D01*
X3497Y2147D01*
X3488Y2152D01*
X3477Y2155D01*
D02*
G37*
G36*
X4625Y2100D02*
X4590D01*
Y2065D01*
X4625D01*
Y2100D01*
D02*
G37*
G36*
X4580D02*
X4545D01*
Y2065D01*
X4580D01*
Y2100D01*
D02*
G37*
G36*
X4625Y2055D02*
X4590D01*
Y2020D01*
X4625D01*
Y2055D01*
D02*
G37*
G36*
X4580D02*
X4545D01*
Y2020D01*
X4580D01*
Y2055D01*
D02*
G37*
G36*
X4383D02*
X4372D01*
X4362Y2052D01*
X4353Y2047D01*
X4346Y2040D01*
X4340Y2030D01*
X4338Y2020D01*
Y2010D01*
X4340Y2000D01*
X4346Y1990D01*
X4353Y1983D01*
X4362Y1978D01*
X4372Y1975D01*
X4383D01*
X4393Y1978D01*
X4402Y1983D01*
X4410Y1990D01*
X4415Y2000D01*
X4418Y2010D01*
Y2020D01*
X4415Y2030D01*
X4410Y2040D01*
X4402Y2047D01*
X4393Y2052D01*
X4383Y2055D01*
D02*
G37*
G36*
X4970Y2685D02*
X4935D01*
Y2650D01*
X4970D01*
Y2685D01*
D02*
G37*
%LPD*%
D10*
X3305Y2585D02*
X3370D01*
X3400Y2615D02*
X3462D01*
X3370Y2585D02*
X3400Y2615D01*
X3311Y2479D02*
X3341D01*
X3384Y2436D01*
X3305Y2485D02*
X3311Y2479D01*
X3384Y2366D02*
Y2436D01*
Y2366D02*
X3429Y2321D01*
X3466D01*
X3472Y2315D01*
X3190Y3410D02*
X3195Y3415D01*
X3123Y3315D02*
X3123Y3315D01*
X3105Y3315D02*
X3123D01*
X3123Y3315D02*
X3305D01*
X3100Y3310D02*
X3105Y3315D01*
X3305Y3315D02*
X3472D01*
X4905Y1925D02*
X4972Y1992D01*
X4845Y1925D02*
X4905D01*
X4972Y1992D02*
Y2057D01*
X4975Y2060D01*
X3462Y2615D02*
X3470Y2623D01*
X3360Y2685D02*
X3390Y2715D01*
X3472D01*
X3305Y3215D02*
X3472D01*
X3464Y3517D02*
X3470Y3523D01*
X3305Y3510D02*
X3310Y3515D01*
X3472D01*
X3305D02*
X3310D01*
X3415Y3615D02*
X3472D01*
X3370Y3660D02*
Y3860D01*
Y3660D02*
X3415Y3615D01*
X3265Y3910D02*
X3320D01*
X3370Y3860D01*
X4660Y3470D02*
X4730D01*
X4378Y3515D02*
X4525D01*
X4570Y3470D01*
X4660D01*
X4378Y3215D02*
X4462D01*
X4636Y2826D02*
X4640Y2830D01*
X4383Y2820D02*
X4635D01*
X4640Y2825D01*
X4378Y2815D02*
X4383Y2820D01*
X3305Y3415D02*
X3473D01*
X3218D02*
X3305D01*
X3218Y3215D02*
X3305D01*
X4616Y3369D02*
X4659D01*
X4462Y3215D02*
X4616Y3369D01*
X4659D02*
X4660Y3370D01*
X4755D01*
X4799Y3539D02*
X4824D01*
X4830Y3545D01*
X4755Y3370D02*
X4830Y3445D01*
X4730Y3470D02*
X4799Y3539D01*
X3195Y3415D02*
X3218D01*
X3218Y3415D01*
X3195Y3215D02*
X3218D01*
X3190Y3210D02*
X3195Y3215D01*
X3218D02*
X3218Y3215D01*
X3105Y3515D02*
X3123D01*
X3123Y3515D02*
X3305D01*
X3100Y3510D02*
X3105Y3515D01*
X3123D02*
X3123Y3515D01*
X3305Y2685D02*
X3360D01*
X3461Y3023D02*
X3470D01*
Y2923D02*
Y2923D01*
D11*
X4745Y2625D02*
X4970Y2850D01*
X4928Y3643D02*
X4970Y3601D01*
Y2850D02*
Y3601D01*
X4683Y3665D02*
X4704Y3645D01*
X4828D01*
X4665Y3665D02*
X4683D01*
X4660Y3670D02*
X4665Y3665D01*
X4832Y3643D02*
X4928D01*
X4830Y3645D02*
X4832Y3643D01*
X4745Y1927D02*
Y2625D01*
X3170Y2390D02*
Y2700D01*
X3280Y2810D01*
X3298D01*
X3301Y2813D01*
X3303D01*
X3170Y1995D02*
Y2390D01*
X3470Y1923D02*
X3568Y1825D01*
X4643D02*
X4743Y1925D01*
X3568Y1825D02*
X4643D01*
X3170Y1995D02*
X3242Y1923D01*
X3470D01*
X3170Y2390D02*
X3175Y2385D01*
X3305D01*
X4743Y1925D02*
X4745D01*
X3305Y2385D02*
X3305Y2385D01*
Y2810D02*
Y3110D01*
D12*
X3100Y3510D02*
D03*
Y3810D02*
D03*
X3190Y3415D02*
D03*
Y3715D02*
D03*
X3100Y3015D02*
D03*
Y3315D02*
D03*
X3190Y2910D02*
D03*
Y3210D02*
D03*
D13*
X3472Y3715D02*
D03*
D14*
X4378D02*
D03*
X3472Y3615D02*
D03*
Y3515D02*
D03*
Y3415D02*
D03*
Y3315D02*
D03*
Y3215D02*
D03*
Y3115D02*
D03*
Y3015D02*
D03*
Y2915D02*
D03*
Y2815D02*
D03*
Y2715D02*
D03*
Y2615D02*
D03*
Y2515D02*
D03*
Y2415D02*
D03*
Y2315D02*
D03*
Y2215D02*
D03*
Y2115D02*
D03*
Y2015D02*
D03*
Y1915D02*
D03*
X4378Y3615D02*
D03*
Y3515D02*
D03*
Y3415D02*
D03*
Y3315D02*
D03*
Y3215D02*
D03*
Y3115D02*
D03*
Y3015D02*
D03*
Y2915D02*
D03*
Y2815D02*
D03*
Y2715D02*
D03*
Y2615D02*
D03*
Y2515D02*
D03*
Y2415D02*
D03*
Y2315D02*
D03*
Y2215D02*
D03*
Y2115D02*
D03*
Y2015D02*
D03*
Y1915D02*
D03*
D15*
X3265Y3910D02*
D03*
D16*
X3186D02*
D03*
D17*
X4830Y3445D02*
D03*
Y3545D02*
D03*
Y3645D02*
D03*
X4660Y3570D02*
D03*
Y3470D02*
D03*
Y3370D02*
D03*
Y3270D02*
D03*
Y3170D02*
D03*
Y3070D02*
D03*
Y2970D02*
D03*
X3305Y2385D02*
D03*
Y2485D02*
D03*
Y2585D02*
D03*
Y2685D02*
D03*
Y3315D02*
D03*
X4645Y1925D02*
D03*
X4745D02*
D03*
X4740Y2825D02*
D03*
X3305Y3415D02*
D03*
Y3215D02*
D03*
Y3115D02*
D03*
Y3015D02*
D03*
Y2915D02*
D03*
Y2815D02*
D03*
D18*
X4830Y3745D02*
D03*
X4660Y3670D02*
D03*
X3305Y2285D02*
D03*
Y3515D02*
D03*
D19*
X4975Y2690D02*
D03*
X4585D02*
D03*
X4975Y2060D02*
D03*
X4585D02*
D03*
D20*
X4845Y1925D02*
D03*
X4640Y2825D02*
D03*
D21*
X3000Y1810D02*
D03*
Y3940D02*
D03*
X4955Y1810D02*
D03*
Y3940D02*
D03*
M02*
