G04*
G04 #@! TF.GenerationSoftware,Altium Limited,Altium Designer,22.4.2 (48)*
G04*
G04 Layer_Color=16711935*
%FSLAX23Y23*%
%MOIN*%
G70*
G04*
G04 #@! TF.SameCoordinates,591487FC-1082-4C1E-878C-0D24C6327220*
G04*
G04*
G04 #@! TF.FilePolarity,Positive*
G04*
G01*
G75*
%ADD22C,0.000*%
%ADD23C,0.000*%
D22*
X2940Y1755D02*
G03*
X2976Y1740I36J36D01*
G01*
X4960D02*
G03*
X5020Y1765I0J85D01*
G01*
D02*
G03*
X5040Y1813I-48J48D01*
G01*
Y3940D02*
G03*
X5015Y4000I-85J0D01*
G01*
D02*
G03*
X4931Y4035I-84J-84D01*
G01*
X3003D02*
G03*
X2955Y4015I0J-68D01*
G01*
D02*
G03*
X2920Y3931I84J-84D01*
G01*
Y1803D02*
G03*
X2940Y1755I68J0D01*
G01*
X2935Y1760D02*
G03*
X2983Y1740I48J48D01*
G01*
X4967D02*
G03*
X5015Y1760I0J68D01*
G01*
D02*
G03*
X5040Y1820I-60J60D01*
G01*
Y3940D02*
G03*
X5015Y4000I-84J0D01*
G01*
D02*
G03*
X4930Y4035I-85J-85D01*
G01*
X3003D02*
G03*
X2955Y4015I0J-68D01*
G01*
D02*
G03*
X2920Y3931I84J-84D01*
G01*
Y1796D02*
G03*
X2935Y1760I51J0D01*
G01*
X2976Y1740D02*
X4960D01*
X5040Y1813D02*
Y3940D01*
X3003Y4035D02*
X4931D01*
X2920Y1803D02*
Y3931D01*
X5040Y1820D02*
Y3940D01*
X2983Y1740D02*
X4967D01*
X3003Y4035D02*
X4930D01*
X2920Y1796D02*
Y3931D01*
D23*
X2940Y1755D02*
G03*
X2976Y1740I36J36D01*
G01*
X4960D02*
G03*
X5020Y1765I0J85D01*
G01*
D02*
G03*
X5040Y1813I-48J48D01*
G01*
Y3940D02*
G03*
X5015Y4000I-85J0D01*
G01*
D02*
G03*
X4931Y4035I-84J-84D01*
G01*
X3003D02*
G03*
X2955Y4015I0J-68D01*
G01*
D02*
G03*
X2920Y3931I84J-84D01*
G01*
Y1803D02*
G03*
X2940Y1755I68J0D01*
G01*
X2976Y1740D02*
X4960D01*
X5040Y1813D02*
Y3940D01*
X3003Y4035D02*
X4931D01*
X2920Y1803D02*
Y3931D01*
M02*
